<?xml version="1.0" encoding="UTF-8" standalone="no"?>
<svg width="624px" height="572px" viewBox="0 0 624 572" version="1.1" xmlns="http://www.w3.org/2000/svg" xmlns:xlink="http://www.w3.org/1999/xlink">
    <!-- Generator: Sketch 3.6.1 (26313) - http://www.bohemiancoding.com/sketch -->
    <title>header-abstract</title>
    <desc>Created with Sketch.</desc>
    <defs></defs>
    <g id="Page-1" stroke="none" stroke-width="1" fill="none" fill-rule="evenodd" opacity="0.0500000007">
        <g id="Desktop-HD-Copy-2" transform="translate(-164.000000, -18.000000)" fill="#FFFFFF">
            <g id="header-abstract" transform="translate(164.000000, 18.000000)">
                <g id="filter" transform="translate(0.954023, 44.513410)">
                    <g id="Capa_1" transform="translate(0.000000, 0.000000)">
                        <path d="M263.578902,1.98951966e-13 C118.00841,1.98951966e-13 0,36.8769486 0,82.3679745 L0,131.788957 L197.68393,329.472886 L197.68393,494.209824 C197.68393,512.405641 227.185291,527.156816 263.578902,527.156816 C299.970537,527.156816 329.473875,512.405641 329.473875,494.209824 L329.473875,329.472886 L527.157804,131.788957 L527.157804,82.3679745 C527.156816,36.8769486 409.148406,1.98951966e-13 263.578902,1.98951966e-13 L263.578902,1.98951966e-13 Z M48.588733,71.4666942 C60.9153145,64.4350768 78.2324267,57.7622558 98.6680029,52.1678006 C143.942565,39.7730182 202.507417,32.9469921 263.578902,32.9469921 C324.649399,32.9469921 383.216228,39.7730182 428.489802,52.1678006 C448.925378,57.7622558 466.241502,64.4350768 478.569071,71.4666942 C486.699811,76.1023824 491.09136,80.0254199 493.1364,82.3679745 C491.09136,84.7115175 486.697835,88.6315898 478.569071,93.2692548 C466.241502,100.300872 448.925378,106.973693 428.489802,112.568148 C383.217216,124.962931 324.650387,131.788957 263.578902,131.788957 C202.507417,131.788957 143.942565,124.962931 98.6680029,112.568148 C78.2324267,106.972705 60.9153145,100.299884 48.588733,93.2692548 C40.4589814,88.6325782 36.0664445,84.7115175 34.0204159,82.3679745 C36.0664445,80.0254199 40.4589814,76.1043592 48.588733,71.4666942 L48.588733,71.4666942 Z" id="Shape"></path>
                    </g>
                </g>
                <g id="asterisk-black-star-shape" transform="translate(365.398467, 0.528736)">
                    <g id="Capa_1" transform="translate(0.000000, 0.000000)">
                        <path d="M235.521027,106.70853 L182.175512,106.70853 L219.895996,68.9880457 C228.527484,60.3560854 228.527484,46.3604851 219.895996,37.7285248 C211.264036,29.0965645 197.267963,29.0965645 188.636475,37.7285248 L150.915991,75.4490089 L150.915991,22.1034942 C150.915991,9.89671986 141.018798,0 128.812497,0 C116.605723,0 106.709003,9.89671986 106.709003,22.1034942 L106.709003,75.4490089 L68.9885187,37.7285248 C60.3565584,29.0965645 46.3609581,29.0965645 37.7289978,37.7285248 C29.0970375,46.3604851 29.0970375,60.3560854 37.7289978,68.9880457 L75.4494819,106.70853 L22.1034942,106.70853 C9.89671986,106.70853 3.69482223e-12,116.605723 3.69482223e-12,128.812497 C3.69482223e-12,141.019271 9.89671986,150.915991 22.1034942,150.915991 L75.4494819,150.915991 L37.7289978,188.636475 C29.0970375,197.267963 29.0970375,211.264036 37.7289978,219.895996 C46.3609581,228.527957 60.3565584,228.527957 68.9885187,219.895996 L106.709003,182.175512 L106.709003,235.521027 C106.709003,247.728274 116.605723,257.624521 128.812497,257.624521 C141.019271,257.624521 150.915991,247.727801 150.915991,235.521027 L150.915991,182.175512 L188.636475,219.895996 C197.267963,228.527484 211.264036,228.527484 219.895996,219.895996 C228.527957,211.264036 228.527957,197.267963 219.895996,188.636475 L182.175512,150.915991 L235.521027,150.915991 C247.728274,150.915991 257.624521,141.018798 257.624521,128.812497 C257.624994,116.605723 247.728274,106.70853 235.521027,106.70853 L235.521027,106.70853 Z" id="Shape"></path>
                    </g>
                </g>
            </g>
        </g>
    </g>
</svg>