<?xml version="1.0" encoding="UTF-8" standalone="no"?>
<svg width="122px" height="36px" viewBox="0 0 122 36" version="1.1" xmlns="http://www.w3.org/2000/svg" xmlns:xlink="http://www.w3.org/1999/xlink">
    <!-- Generator: Sketch 3.6.1 (26313) - http://www.bohemiancoding.com/sketch -->
    <title>Branding</title>
    <desc>Created with Sketch.</desc>
    <defs></defs>
    <g id="Page-1" stroke="none" stroke-width="1" fill="none" fill-rule="evenodd">
        <g id="no-nlp" transform="translate(-136.000000, -23.000000)" fill="#FFFFFF">
            <g id="Branding" transform="translate(136.000000, 23.000000)">
                <text id="Logo-Name" font-family="Arvo" font-size="22" font-weight="normal">
                    <tspan x="33" y="27">nifty</tspan>
                    <tspan x="83.5527344" y="27" font-family="OpenSans-Light, Open Sans" font-weight="300">sort</tspan>
                </text>
                <g id="white-logo">
                    <g id="Group-Copy-4">
                        <g id="Page-1">
                            <g id="Latest-Attempt">
                                <g id="Group-2">
                                    <g id="Group-Copy-4">
                                        <g id="filter" transform="translate(0.505322, 2.440588)">
                                            <g id="Capa_1">
                                                <path d="M14.0514317,0 C6.29104642,0 0,1.98648979 0,4.43700322 L0,7.0992158 L10.5385606,17.7480662 L10.5385606,26.6221258 C10.5385606,27.6022993 12.1112827,28.3969165 14.0514317,28.3969165 C15.9914752,28.3969165 17.5643028,27.6022993 17.5643028,26.6221258 L17.5643028,17.7480662 L28.1028633,7.0992158 L28.1028633,4.43700322 C28.1028106,1.98648979 21.8117642,0 14.0514317,0 L14.0514317,0 L14.0514317,0 Z M2.59027281,3.84977237 C3.24740475,3.47099276 4.17058265,3.11154082 5.26000636,2.81017835 C7.67360019,2.14249544 10.7957014,1.77479063 14.0514317,1.77479063 C17.3071092,1.77479063 20.4293159,2.14249544 22.8428569,2.81017835 C23.9322807,3.11154082 24.8554059,3.47099276 25.5125905,3.84977237 C25.9460415,4.09948791 26.1801556,4.31081434 26.289177,4.43700322 C26.1801556,4.56324534 25.9459361,4.77441204 25.5125905,5.02423407 C24.8554059,5.40301368 23.9322807,5.76246561 22.8428569,6.06382808 C20.4293685,6.73151099 17.3071619,7.0992158 14.0514317,7.0992158 C10.7957014,7.0992158 7.67360019,6.73151099 5.26000636,6.06382808 C4.17058265,5.76241237 3.24740475,5.40296044 2.59027281,5.02423407 C2.1568745,4.77446528 1.92270768,4.56324534 1.81363359,4.43700322 C1.92270768,4.31081434 2.1568745,4.09959439 2.59027281,3.84977237 L2.59027281,3.84977237 L2.59027281,3.84977237 Z" id="Shape"></path>
                                            </g>
                                        </g>
                                        <g id="asterisk-black-star-shape" transform="translate(19.933912, 0.071219)">
                                            <g id="Capa_1">
                                                <path d="M12.555662,5.74818178 L9.71180446,5.74818178 L11.7226892,3.71625238 C12.1828352,3.2512654 12.1828352,2.49734952 11.7226892,2.03236254 C11.2625181,1.56737557 10.5163853,1.56737557 10.0562394,2.03236254 L8.04535462,4.06429194 L8.04535462,1.19067241 C8.04535462,0.533117127 7.51773374,0 6.86701395,0 C6.21626893,0 5.68867329,0.533117127 5.68867329,1.19067241 L5.68867329,4.06429194 L3.67778851,2.03236254 C3.21761737,1.56737557 2.47150978,1.56737557 2.01133865,2.03236254 C1.55116752,2.49734952 1.55116752,3.2512654 2.01133865,3.71625238 L4.02222344,5.74818178 L1.17834066,5.74818178 C0.527595652,5.74818178 2.38120634e-12,6.28132439 2.38120634e-12,6.93887967 C2.38120634e-12,7.59643496 0.527595652,8.12955209 1.17834066,8.12955209 L4.02222344,8.12955209 L2.01133865,10.1614815 C1.55116752,10.626443 1.55116752,11.3803843 2.01133865,11.8453713 C2.47150978,12.3103583 3.21761737,12.3103583 3.67778851,11.8453713 L5.68867329,9.81344192 L5.68867329,12.6870614 C5.68867329,13.3446422 6.21626893,13.8777339 6.86701395,13.8777339 C7.51775895,13.8777339 8.04535462,13.3446167 8.04535462,12.6870614 L8.04535462,9.81344192 L10.0562394,11.8453713 C10.5163853,12.3103328 11.2625181,12.3103328 11.7226892,11.8453713 C12.1828604,11.3803843 12.1828604,10.626443 11.7226892,10.1614815 L9.71180446,8.12955209 L12.555662,8.12955209 C13.2064323,8.12955209 13.7340026,7.59640948 13.7340026,6.93887967 C13.7340278,6.28132439 13.2064323,5.74818178 12.555662,5.74818178 L12.555662,5.74818178 L12.555662,5.74818178 Z" id="Shape"></path>
                                            </g>
                                        </g>
                                    </g>
                                </g>
                            </g>
                        </g>
                    </g>
                </g>
            </g>
        </g>
    </g>
</svg>