<?xml version="1.0" encoding="UTF-8" standalone="no"?>
<svg width="144px" height="35px" viewBox="0 0 144 35" version="1.1" xmlns="http://www.w3.org/2000/svg" xmlns:xlink="http://www.w3.org/1999/xlink">
    <!-- Generator: Sketch 3.6.1 (26313) - http://www.bohemiancoding.com/sketch -->
    <title>Branding</title>
    <desc>Created with Sketch.</desc>
    <defs></defs>
    <g id="Page-1" stroke="none" stroke-width="1" fill="none" fill-rule="evenodd">
        <g id="no-nlp" transform="translate(-136.000000, -21.000000)" fill="#FFFFFF">
            <g id="Branding" transform="translate(136.000000, 21.000000)">
                <path d="M55.7558594,28 L55.7558594,18.9990234 C55.7558594,17.8649032 55.4977239,17.0185575 54.9814453,16.4599609 C54.4651667,15.9013644 53.6569065,15.6220703 52.5566406,15.6220703 C51.1009042,15.6220703 50.0345086,16.0156211 49.3574219,16.8027344 C48.6803352,17.5898477 48.3417969,18.8889883 48.3417969,20.7001953 L48.3417969,28 L46.234375,28 L46.234375,14.0859375 L47.9482422,14.0859375 L48.2910156,15.9902344 L48.3925781,15.9902344 C48.8242209,15.3046841 49.4293581,14.7736021 50.2080078,14.3969727 C50.9866575,14.0203432 51.8541619,13.8320312 52.8105469,13.8320312 C54.4863365,13.8320312 55.7473916,14.2361613 56.59375,15.0444336 C57.4401084,15.8527059 57.8632812,17.1454989 57.8632812,18.9228516 L57.8632812,28 L55.7558594,28 Z M64.2998047,28 L62.1923828,28 L62.1923828,14.0859375 L64.2998047,14.0859375 L64.2998047,28 Z M62.0146484,10.3154297 C62.0146484,9.8330054 62.1331368,9.47965607 62.3701172,9.25537109 C62.6070975,9.03108612 62.9033185,8.91894531 63.2587891,8.91894531 C63.5973324,8.91894531 63.8893217,9.03320198 64.1347656,9.26171875 C64.3802096,9.49023552 64.5029297,9.84146898 64.5029297,10.3154297 C64.5029297,10.7893904 64.3802096,11.1427397 64.1347656,11.3754883 C63.8893217,11.6082368 63.5973324,11.7246094 63.2587891,11.7246094 C62.9033185,11.7246094 62.6070975,11.6082368 62.3701172,11.3754883 C62.1331368,11.1427397 62.0146484,10.7893904 62.0146484,10.3154297 L62.0146484,10.3154297 Z M75.0400391,15.7236328 L71.4980469,15.7236328 L71.4980469,28 L69.390625,28 L69.390625,15.7236328 L66.9023438,15.7236328 L66.9023438,14.7714844 L69.390625,14.0097656 L69.390625,13.2353516 C69.390625,9.81606363 70.8844252,8.10644531 73.8720703,8.10644531 C74.6084021,8.10644531 75.4716747,8.25455581 76.4619141,8.55078125 L75.9160156,10.2392578 C75.1035116,9.97688671 74.4095081,9.84570312 73.8339844,9.84570312 C73.0384075,9.84570312 72.4501972,10.1101862 72.0693359,10.6391602 C71.6884747,11.1681342 71.4980469,12.0165957 71.4980469,13.1845703 L71.4980469,14.0859375 L75.0400391,14.0859375 L75.0400391,15.7236328 Z M82.0732422,26.5146484 C82.4456399,26.5146484 82.8053368,26.4871422 83.1523438,26.4321289 C83.4993507,26.3771156 83.774413,26.3199873 83.9775391,26.2607422 L83.9775391,27.8730469 C83.7490223,27.9830735 83.4125999,28.0740556 82.9682617,28.1459961 C82.5239236,28.2179366 82.1240252,28.2539062 81.7685547,28.2539062 C79.077135,28.2539062 77.7314453,26.8362772 77.7314453,24.0009766 L77.7314453,15.7236328 L75.7382812,15.7236328 L75.7382812,14.7080078 L77.7314453,13.8320312 L78.6201172,10.8613281 L79.8388672,10.8613281 L79.8388672,14.0859375 L83.8759766,14.0859375 L83.8759766,15.7236328 L79.8388672,15.7236328 L79.8388672,23.9121094 C79.8388672,24.7500042 80.0377584,25.3932269 80.4355469,25.8417969 C80.8333353,26.2903668 81.3792283,26.5146484 82.0732422,26.5146484 L82.0732422,26.5146484 Z M84.5488281,14.0859375 L86.8085938,14.0859375 L89.8554688,22.0205078 C90.5240919,23.8317148 90.9388013,25.1393189 91.0996094,25.9433594 L91.2011719,25.9433594 C91.3111985,25.5117166 91.5418277,24.77328 91.8930664,23.7280273 C92.2443051,22.6827747 93.3932194,19.4687769 95.3398438,14.0859375 L97.5996094,14.0859375 L91.6201172,29.9296875 C91.0276663,31.4954505 90.3357787,32.6062793 89.5444336,33.262207 C88.7530885,33.9181348 87.7819068,34.2460938 86.6308594,34.2460938 C85.987627,34.2460938 85.3528677,34.1741544 84.7265625,34.0302734 L84.7265625,32.3417969 C85.1920596,32.4433599 85.7125622,32.4941406 86.2880859,32.4941406 C87.7353588,32.4941406 88.7679006,31.6816488 89.3857422,30.0566406 L90.1601562,28.0761719 L84.5488281,14.0859375 Z M108.492188,24.4072266 C108.492188,25.6429098 108.022466,26.5929329 107.083008,27.2573242 C106.14355,27.9217156 104.810556,28.2539062 103.083984,28.2539062 C101.238923,28.2539062 99.774745,27.9703804 98.6914062,27.4033203 L98.6914062,26.0449219 C100.079434,26.7389358 101.543612,27.0859375 103.083984,27.0859375 C104.446621,27.0859375 105.481279,26.85954 106.187988,26.4067383 C106.894698,25.9539365 107.248047,25.3509152 107.248047,24.5976562 C107.248047,23.9036424 106.966637,23.3196638 106.403809,22.8457031 C105.84098,22.3717424 104.916348,21.9062523 103.629883,21.4492188 C102.250319,20.9498673 101.281253,20.5203469 100.722656,20.1606445 C100.16406,19.8009422 99.7430027,19.3946963 99.4594727,18.9418945 C99.1759426,18.4890928 99.0341797,17.9368522 99.0341797,17.2851562 C99.0341797,16.252599 99.4679319,15.4358754 100.335449,14.8349609 C101.202967,14.2340465 102.415357,13.9335938 103.972656,13.9335938 C105.462247,13.9335938 106.875644,14.2128878 108.212891,14.7714844 L107.743164,15.9140625 C106.388991,15.355466 105.132167,15.0761719 103.972656,15.0761719 C102.847,15.0761719 101.954105,15.2623679 101.293945,15.6347656 C100.633786,16.0071633 100.303711,16.5234342 100.303711,17.1835938 C100.303711,17.9029984 100.559731,18.4785135 101.071777,18.9101562 C101.583824,19.341799 102.584628,19.8242161 104.074219,20.3574219 C105.318366,20.8059918 106.223955,21.2101219 106.791016,21.5698242 C107.358076,21.9295265 107.783364,22.3378883 108.066895,22.7949219 C108.350425,23.2519554 108.492188,23.7893849 108.492188,24.4072266 L108.492188,24.4072266 Z M123.459961,21.0810547 C123.459961,23.332368 122.914068,25.0906512 121.822266,26.355957 C120.730463,27.6212628 119.223968,28.2539062 117.302734,28.2539062 C116.092442,28.2539062 115.026046,27.961917 114.103516,27.3779297 C113.180985,26.7939424 112.474286,25.9560601 111.983398,24.8642578 C111.492511,23.7724555 111.24707,22.5114004 111.24707,21.0810547 C111.24707,18.8297413 111.792963,17.0756899 112.884766,15.8188477 C113.976568,14.5620054 115.4746,13.9335938 117.378906,13.9335938 C119.274749,13.9335938 120.762202,14.5704689 121.841309,15.8442383 C122.920416,17.1180077 123.459961,18.8635957 123.459961,21.0810547 L123.459961,21.0810547 Z M112.567383,21.0810547 C112.567383,22.9768975 112.984208,24.4558866 113.817871,25.5180664 C114.651534,26.5802462 115.830071,27.1113281 117.353516,27.1113281 C118.876961,27.1113281 120.055497,26.5802462 120.88916,25.5180664 C121.722823,24.4558866 122.139648,22.9768975 122.139648,21.0810547 C122.139648,19.1767483 121.718591,17.699875 120.876465,16.6503906 C120.034338,15.6009062 118.85157,15.0761719 117.328125,15.0761719 C115.80468,15.0761719 114.630375,15.5987903 113.805176,16.644043 C112.979976,17.6892956 112.567383,19.1682847 112.567383,21.0810547 L112.567383,21.0810547 Z M132.714844,13.9335938 C133.298831,13.9335938 133.925127,13.9928379 134.59375,14.1113281 L134.352539,15.3173828 C133.777015,15.1735019 133.180342,15.1015625 132.5625,15.1015625 C131.386062,15.1015625 130.421228,15.6009065 129.667969,16.5996094 C128.91471,17.5983123 128.538086,18.8593674 128.538086,20.3828125 L128.538086,28 L127.28125,28 L127.28125,14.2001953 L128.347656,14.2001953 L128.474609,16.6884766 L128.563477,16.6884766 C129.130537,15.6728465 129.735674,14.9598002 130.378906,14.5493164 C131.022139,14.1388326 131.800777,13.9335938 132.714844,13.9335938 L132.714844,13.9335938 Z M141.042969,27.1367188 C141.838546,27.1367188 142.532549,27.0690111 143.125,26.9335938 L143.125,27.9492188 C142.515622,28.1523448 141.813155,28.2539062 141.017578,28.2539062 C139.798822,28.2539062 138.89958,27.9280632 138.319824,27.2763672 C137.740069,26.6246712 137.450195,25.6005929 137.450195,24.2041016 L137.450195,15.2919922 L135.40625,15.2919922 L135.40625,14.5556641 L137.450195,13.984375 L138.084961,10.8613281 L138.732422,10.8613281 L138.732422,14.2001953 L142.782227,14.2001953 L142.782227,15.2919922 L138.732422,15.2919922 L138.732422,24.0263672 C138.732422,25.0843152 138.918618,25.867185 139.291016,26.375 C139.663413,26.882815 140.247392,27.1367188 141.042969,27.1367188 L141.042969,27.1367188 Z" id="Logo-Name"></path>
                <g id="white-logo">
                    <g id="Group-Copy-4">
                        <g id="Page-1">
                            <g id="Latest-Attempt">
                                <g id="Group-2">
                                    <g id="Group-Copy-4">
                                        <g id="filter" transform="translate(0.553694, 2.674212)">
                                            <g id="Capa_1">
                                                <path d="M15.3964953,0 C6.89325252,0 0,2.17664516 0,4.86173231 L0,7.77878336 L11.547357,19.4469876 L11.547357,29.1705105 C11.547357,30.2445104 13.2706269,31.1151918 15.3964953,31.1151918 C17.5222482,31.1151918 19.2456336,30.2445104 19.2456336,29.1705105 L19.2456336,19.4469876 L30.7929906,7.77878336 L30.7929906,4.86173231 C30.7929328,2.17664516 23.8996803,0 15.3964953,0 L15.3964953,0 L15.3964953,0 Z M2.83822489,4.21828919 C3.55826034,3.80325115 4.56980881,3.40939093 5.76351685,3.07918075 C8.4081503,2.34758434 11.8291126,1.94468125 15.3964953,1.94468125 C18.9638204,1.94468125 22.3848981,2.34758434 25.0294737,3.07918075 C26.2231818,3.40939093 27.2346725,3.80325115 27.9547657,4.21828919 C28.4297085,4.49190858 28.6862331,4.72346409 28.8056905,4.86173231 C28.6862331,5.00005887 28.4295931,5.23143936 27.9547657,5.50517543 C27.2346725,5.92021345 26.2231818,6.31407368 25.0294737,6.64428386 C22.3849558,7.37588026 18.963878,7.77878336 15.3964953,7.77878336 C11.8291126,7.77878336 8.4081503,7.37588026 5.76351685,6.64428386 C4.56980881,6.31401534 3.55826034,5.92015512 2.83822489,5.50517543 C2.36333984,5.23149769 2.10675755,5.00005887 1.98724242,4.86173231 C2.10675755,4.72346409 2.36333984,4.49202525 2.83822489,4.21828919 L2.83822489,4.21828919 L2.83822489,4.21828919 Z" id="Shape"></path>
                                            </g>
                                        </g>
                                        <g id="asterisk-black-star-shape" transform="translate(21.842072, 0.078036)">
                                            <g id="Capa_1">
                                                <path d="M13.7575441,6.29842254 L10.6414603,6.29842254 L12.8448356,4.07198808 C13.3490287,3.56249055 13.3490287,2.73640659 12.8448356,2.22690905 C12.3406149,1.71741152 11.5230591,1.71741152 11.018866,2.22690905 L8.81549066,4.4533435 L8.81549066,1.30464871 C8.81549066,0.584149398 8.23736364,0 7.52435415,0 C6.81131701,0 6.23321763,0.584149398 6.23321763,1.30464871 L6.23321763,4.4533435 L4.02984229,2.22690905 C3.52562158,1.71741152 2.70809336,1.71741152 2.20387266,2.22690905 C1.69965197,2.73640659 1.69965197,3.56249055 2.20387266,4.07198808 L4.40724802,6.29842254 L1.29113651,6.29842254 C0.578099384,6.29842254 2.6094682e-12,6.88259985 2.6094682e-12,7.60309916 C2.6094682e-12,8.32359848 0.578099384,8.90774788 1.29113651,8.90774788 L4.40724802,8.90774788 L2.20387266,11.1341823 C1.69965197,11.6436519 1.69965197,12.4697638 2.20387266,12.9792614 C2.70809336,13.4887589 3.52562158,13.4887589 4.02984229,12.9792614 L6.23321763,10.7528269 L6.23321763,13.9015217 C6.23321763,14.6220489 6.81131701,15.2061704 7.52435415,15.2061704 C8.23739127,15.2061704 8.81549066,14.622021 8.81549066,13.9015217 L8.81549066,10.7528269 L11.018866,12.9792614 C11.5230591,13.488731 12.3406149,13.488731 12.8448356,12.9792614 C13.3490563,12.4697638 13.3490563,11.6436519 12.8448356,11.1341823 L10.6414603,8.90774788 L13.7575441,8.90774788 C14.4706089,8.90774788 15.0486806,8.32357056 15.0486806,7.60309916 C15.0487082,6.88259985 14.4706089,6.29842254 13.7575441,6.29842254 L13.7575441,6.29842254 L13.7575441,6.29842254 Z" id="Shape"></path>
                                            </g>
                                        </g>
                                    </g>
                                </g>
                            </g>
                        </g>
                    </g>
                </g>
            </g>
        </g>
    </g>
</svg>