<?xml version="1.0" encoding="UTF-8" standalone="no"?>
<svg width="26px" height="24px" viewBox="0 0 26 24" version="1.1" xmlns="http://www.w3.org/2000/svg" xmlns:xlink="http://www.w3.org/1999/xlink">
    <!-- Generator: Sketch 3.6.1 (26313) - http://www.bohemiancoding.com/sketch -->
    <title>Group Copy 4</title>
    <desc>Created with Sketch.</desc>
    <defs></defs>
    <g id="Page-1" stroke="none" stroke-width="1" fill="none" fill-rule="evenodd">
        <g id="Latest-Attempt" transform="translate(-735.000000, -71.000000)" fill="#FFFFFF">
            <g id="Group-2" transform="translate(730.000000, 66.000000)">
                <g id="Group-Copy-4">
                    <g id="filter" transform="translate(5.386973, 6.868989)">
                        <g id="Capa_1">
                            <path d="M10.7605092,0 C4.8176488,0 0,1.52124297 0,3.3978327 L0,5.43654047 L8.07037181,13.5913716 L8.07037181,20.3870777 C8.07037181,21.1376892 9.27475374,21.7462027 10.7605092,21.7462027 C12.2461839,21.7462027 13.4506466,21.1376892 13.4506466,20.3870777 L13.4506466,13.5913716 L21.5210184,5.43654047 L21.5210184,3.3978327 C21.520978,1.52124297 16.7033292,0 10.7605092,0 L10.7605092,0 Z M1.98361669,2.94813454 C2.48684472,2.65806719 3.19380929,2.38280087 4.02808398,2.15201915 C5.87640088,1.64071124 8.26728888,1.35912492 10.7605092,1.35912492 C13.2536892,1.35912492 15.6446579,1.64071124 17.4929344,2.15201915 C18.3272091,2.38280087 19.0341333,2.65806719 19.5374017,2.94813454 C19.8693361,3.13936533 20.0486194,3.30119795 20.1321074,3.3978327 C20.0486194,3.49450822 19.8692554,3.65621852 19.5374017,3.84753086 C19.0341333,4.1375982 18.3272091,4.41286452 17.4929344,4.64364624 C15.6446982,5.15495415 13.2537295,5.43654047 10.7605092,5.43654047 C8.26728888,5.43654047 5.87640088,5.15495415 4.02808398,4.64364624 C3.19380929,4.41282375 2.48684472,4.13755743 1.98361669,3.84753086 C1.65172265,3.65625929 1.47239898,3.49450822 1.38887064,3.3978327 C1.47239898,3.30119795 1.65172265,3.13944687 1.98361669,2.94813454 L1.98361669,2.94813454 Z" id="Shape"></path>
                        </g>
                    </g>
                    <g id="asterisk-black-star-shape" transform="translate(20.265280, 5.054539)">
                        <g id="Capa_1">
                            <path d="M9.61505702,4.40192604 L7.43724652,4.40192604 L8.97717104,2.84588566 C9.32954826,2.48980119 9.32954826,1.91245655 8.97717104,1.55637207 C8.62477452,1.2002876 8.05339011,1.2002876 7.7010129,1.55637207 L6.16108838,3.11241245 L6.16108838,0.911810394 C6.16108838,0.408258168 5.75703921,0 5.25872157,0 C4.76038461,0 4.35635476,0.408258168 4.35635476,0.911810394 L4.35635476,3.11241245 L2.81643024,1.55637207 C2.46403371,1.2002876 1.89266862,1.2002876 1.54027209,1.55637207 C1.18787557,1.91245655 1.18787557,2.48980119 1.54027209,2.84588566 L3.08019662,4.40192604 L0.902366807,4.40192604 C0.404029853,4.40192604 1.8234303e-12,4.81020372 1.8234303e-12,5.31375594 C1.8234303e-12,5.81730817 0.404029853,6.22556634 0.902366807,6.22556634 L3.08019662,6.22556634 L1.54027209,7.78160672 C1.18787557,8.13767168 1.18787557,8.71503583 1.54027209,9.0711203 C1.89266862,9.42720478 2.46403371,9.42720478 2.81643024,9.0711203 L4.35635476,7.51507993 L4.35635476,9.71568198 C4.35635476,10.2192537 4.76038461,10.6274924 5.25872157,10.6274924 C5.75705852,10.6274924 6.16108838,10.2192342 6.16108838,9.71568198 L6.16108838,7.51507993 L7.7010129,9.0711203 C8.05339011,9.42718527 8.62477452,9.42718527 8.97717104,9.0711203 C9.32956756,8.71503583 9.32956756,8.13767168 8.97717104,7.78160672 L7.43724652,6.22556634 L9.61505702,6.22556634 C10.1134133,6.22556634 10.5174238,5.81728866 10.5174238,5.31375594 C10.5174431,4.81020372 10.1134133,4.40192604 9.61505702,4.40192604 L9.61505702,4.40192604 Z" id="Shape"></path>
                        </g>
                    </g>
                </g>
            </g>
        </g>
    </g>
</svg>